<?xml version="1.0" encoding="UTF-8" standalone="no"?>
<!-- Created with Inkscape (http://www.inkscape.org/) -->

<svg
   xmlns:dc="http://purl.org/dc/elements/1.1/"
   xmlns:cc="http://creativecommons.org/ns#"
   xmlns:rdf="http://www.w3.org/1999/02/22-rdf-syntax-ns#"
   xmlns:svg="http://www.w3.org/2000/svg"
   xmlns="http://www.w3.org/2000/svg"
   xmlns:sodipodi="http://sodipodi.sourceforge.net/DTD/sodipodi-0.dtd"
   xmlns:inkscape="http://www.inkscape.org/namespaces/inkscape"
   width="861.88287mm"
   height="800.71124mm"
   viewBox="0 0 861.88287 800.71124"
   version="1.1"
   id="svg838"
   sodipodi:docname="curve-2.svg"
   inkscape:version="0.92.4 (fd57863, 2020-04-02)">
  <defs
     id="defs832" />
  <sodipodi:namedview
     id="base"
     pagecolor="#ffffff"
     bordercolor="#666666"
     borderopacity="1.0"
     inkscape:pageopacity="0.0"
     inkscape:pageshadow="2"
     inkscape:zoom="0.175"
     inkscape:cx="1206.4384"
     inkscape:cy="972.3982"
     inkscape:document-units="mm"
     inkscape:current-layer="layer1"
     showgrid="false"
     fit-margin-top="0"
     fit-margin-left="0"
     fit-margin-right="0"
     fit-margin-bottom="0"
     inkscape:window-width="1245"
     inkscape:window-height="1016"
     inkscape:window-x="1315"
     inkscape:window-y="27"
     inkscape:window-maximized="0" />
  <metadata
     id="metadata835">
    <rdf:RDF>
      <cc:Work
         rdf:about="">
        <dc:format>image/svg+xml</dc:format>
        <dc:type
           rdf:resource="http://purl.org/dc/dcmitype/StillImage" />
        <dc:title></dc:title>
      </cc:Work>
    </rdf:RDF>
  </metadata>
  <g
     inkscape:label="Capa 1"
     inkscape:groupmode="layer"
     id="layer1"
     transform="translate(524.67953,494.93897)">
    <path
       inkscape:connector-curvature="0"
       id="path24"
       style="fill:#4f4f4f;fill-opacity:1;fill-rule:nonzero;stroke:none;stroke-width:0.35277775"
       d="m -504.16647,-308.51652 c -15.87182,27.5149 -11.189,54.24316 -17.01341,90.48008 12.1927,39.60177 24.71611,68.86042 62.32363,88.56624 47.05351,24.65528 54.84487,19.57266 106.83946,82.666295 20.07931,24.365539 43.59452,50.1521427 26.92219,114.54895 -21.68394,28.974904 -32.90611,43.151265 -40.90579,73.663485 -10.60881,28.52392 -5.12234,76.416 23.51318,98.87243 11.12133,23.80121 46.67845,54.09248 72.96287,60.23399 109.92767,25.68504 213.648106,9.57245 326.621306,4.38944 C 131.78813,301.47751 210.4805,285.40918 264.33559,235.32075 331.97857,172.40813 343.85307,71.735935 334.32561,-18.482405 320.6657,-147.82378 262.91657,-239.9022 183.80409,-345.10618 c -32.03612,-42.6011 -88.426191,-77.50095 -139.267845,-96.52132 -47.4344999,-17.74578 -63.808956,-14.78562 -131.200038,-25.17084 -94.699877,5.83533 -85.904597,-4.09407 -151.233717,21.53199 -36.95937,4.90059 -88.34019,12.48632 -114.80911,20.28765 -29.43543,8.67515 -72.81394,34.17046 -72.81394,34.17046 -44.90115,32.55635 -44.80223,34.30915 -78.64591,82.29172"
       sodipodi:nodetypes="cccscccccccccccccc" />
  </g>
</svg>
