<svg version="1" xmlns="http://www.w3.org/2000/svg" width="788" height="788" viewBox="0 0 591.000000 591.000000"><path d="M533.7 4.6c-.1.1-23.1.5-51.2.9-28 .3-61.8.8-75 1-13.2.2-43.1.7-66.5 1-23.4.4-52.6.8-65 1l-22.5.3-17.6 4.6C205 21.3 183.6 29 157.5 41.6c-42.6 20.6-77.9 48.8-103.6 82.9C30.7 155.3 12.8 195.1 6.4 230c-.3 1.4-.7 3.2-.9 4-.7 2.5-3.4 21-4.2 29.5-1 9.9-1 46.1-.1 57.5 3.2 38 14.3 78.9 30.3 111 6.7 13.7 8.4 16.6 16.2 28.4 16.7 25.1 37.1 46.7 64.4 67.9 5.6 4.3 25.1 16.8 33.4 21.3 29.1 15.8 65.3 28.5 93.9 32.8 2.1.4 4.8.8 6 1.1 1.2.3 4.4.7 7.1 1 2.8.3 7.9.9 11.5 1.3 3.6.4 16.9.7 29.5.7 20.4-.1 28.2-.5 39-1.9 8.7-1.2 13.2-1.9 14.5-2.1 13.7-2.8 22.9-4.8 29-6.5 4.1-1.1 8.2-2.2 9-2.4 9.2-2.3 30.6-10.9 45.1-18.1 43.7-21.7 78.8-54.7 105.8-99.3 5.7-9.5 19.1-35.2 19.1-36.7 0-.3.9-2.5 1.9-4.8 5.7-12.4 16.1-42.7 19.5-56.7.8-3.6 2.5-14.2 3.6-23.5 1.1-9.4 2.2-18.4 2.5-20 .2-1.7.7-5.5 1-8.5.6-6.3 1-9.3 2.5-20.5.5-4.4 1.2-10.3 1.5-13 .2-2.8.6-6.4.9-8 .8-5 1.9-14.8 2-18l.1-2.9-45.8-.1c-25.2 0-46.2.2-46.7.5s-1.2 4.1-1.5 8.5c-.3 4.4-.8 9.1-1 10.5-.2 1.4-.6 5-1 8-.7 5.6-.9 7.4-1.9 14.5-.3 2.2-.8 6-1.2 8.5-2.6 19.8-10.6 52.4-17.9 72.4-13.9 38.3-30 61.9-56.5 82.6-5.2 4.1-9.7 7.7-10 8.1-1.1 1.4-12.1 8-19.9 11.9-15.2 7.7-43.1 15.3-64 17.5-3.5.4-8.2.9-10.5 1.1-11.3 1.2-42.8 1.1-52-.2-14.6-2.1-34.8-7.4-43.1-11.3-1.1-.6-5.8-2.8-10.5-4.9-10.8-4.9-24.4-13.3-35.7-22-9-7-24.5-21.9-29.2-28.2-1.4-1.9-3.4-4.4-4.4-5.5-4-4.4-14.7-21.7-19.5-31.5-7.6-15.5-15.1-39.8-16.8-54.5-2.4-21.3-2.2-41.6.6-58 .6-3.3 1.3-7.5 1.5-9.4.6-4.1 4-17.4 6.5-25.6 10.8-35.6 31.4-66.8 58.2-88.2 4-3.2 7.5-6 7.8-6.3 1.5-1.5 16-10.5 23.1-14.4 11.1-5.9 22.5-10.8 36.1-15.6 17.3-5.9 23.2-7.2 36.8-7.6 34.1-1.1 39-1.2 39-.4 0 .5-.7 3.5-1.5 6.7-4.6 18.3-16.5 67.7-17 70.4-.3 1.8-.8 3.5-1 3.9-.2.3-.6 1.7-.9 3.1-.2 1.3-3.7 15.4-7.6 31.4-4 15.9-7.3 29.8-7.6 30.8-.2 1.1-3 13-6.4 26.5-3.3 13.6-9.2 37.7-13 53.7-3.9 15.9-8.2 33.7-9.7 39.5-1.4 5.8-2.7 11.6-2.9 13.1l-.5 2.5h48.8c48.4-.1 48.8-.1 52.3-2.3 4.4-2.7 7-5.7 9.3-10.5 1.4-2.9 7.6-27.3 10.2-40.3.3-1.1 5-21.8 10.6-46 5.5-24.2 10.3-45.1 10.5-46.5.6-3.1 9-39.9 10.4-45.5.5-2.2 1.7-7.2 2.6-11 .8-3.9 1.7-7.7 1.9-8.5.2-.8 1-4.7 1.9-8.5.8-3.9 3.3-14.9 5.6-24.5 2.2-9.6 4.2-18.5 4.5-19.8.2-1.2.6-3 .9-4 .3-.9.7-2.8 1-4.2.2-1.4.9-4.4 1.5-6.8l1.2-4.2h130.4l5-2.4c8.8-4.1 22.8-20.4 24-27.9.4-2.3.9-4.9 1-5.7.1-.8.6-3.5 1-6s.9-5.4 1.1-6.5c.3-1.1 1.5-8.1 2.9-15.5 1.3-7.4 2.7-14.7 3-16.3.2-1.5.9-5.3 1.5-8.5.6-3.1 1.2-6.7 1.4-7.9l.5-2.3-27 .3c-14.9.1-27.1.3-27.2.3z"/></svg>